REM DIRINDEX 1\6,1\2\7,1\2\8,1\2\9,1\3\10,1\3\11,1\4\12,1\4\13,1\4\14,1\5\15,1\5\16,1\5\17
REM DIRNAME folder01,folder02,folder03,folder04,folder05,folder06,folder07,folder08,folder09,folder10,folder11,folder12,folder13,folder14,folder15,folder16,folder17
TITLE ""
FILE "P2Q_t_0965-0982.mp3" MP3
  TRACK 01 AUDIO
    TITLE "10:cjc040_3585"
    INDEX 01 00:00:00
  TRACK 02 AUDIO
    TITLE "0:"
    INDEX 01 00:01:15
  TRACK 03 AUDIO
    TITLE "11:cjc040_3586"
    INDEX 01 00:01:71
  TRACK 04 AUDIO
    TITLE "0:"
    INDEX 01 00:03:08
  TRACK 05 AUDIO
    TITLE "10:cjc040_3587"
    INDEX 01 00:03:61
  TRACK 06 AUDIO
    TITLE "0:"
    INDEX 01 00:04:74
  TRACK 07 AUDIO
    TITLE "11:cjc040_3588"
    INDEX 01 00:05:59
  TRACK 08 AUDIO
    TITLE "0:"
    INDEX 01 00:06:63
  TRACK 09 AUDIO
    TITLE "10:cjc040_3589"
    INDEX 01 00:07:51
  TRACK 10 AUDIO
    TITLE "0:"
    INDEX 01 00:09:16
  TRACK 11 AUDIO
    TITLE "11:cjc040_3590"
    INDEX 01 00:09:65
  TRACK 12 AUDIO
    TITLE "0:"
    INDEX 01 00:10:66
  TRACK 13 AUDIO
    TITLE "10:cjc040_3591"
    INDEX 01 00:11:48
  TRACK 14 AUDIO
    TITLE "0:"
    INDEX 01 00:12:54
  TRACK 15 AUDIO
    TITLE "11:cjc040_3592"
    INDEX 01 00:13:33
  TRACK 16 AUDIO
    TITLE "0:"
    INDEX 01 00:15:42
  TRACK 17 AUDIO
    TITLE "10:cjc040_3593"
    INDEX 01 00:16:18
  TRACK 18 AUDIO
    TITLE "0:"
    INDEX 01 00:17:31
  TRACK 19 AUDIO
    TITLE "11:cjc040_3594"
    INDEX 01 00:18:09
  TRACK 20 AUDIO
    TITLE "0:"
    INDEX 01 00:21:37
  TRACK 21 AUDIO
    TITLE "10:cjc040_3595"
    INDEX 01 00:22:17
  TRACK 22 AUDIO
    TITLE "0:"
    INDEX 01 00:23:30
  TRACK 23 AUDIO
    TITLE "11:cjc040_3596"
    INDEX 01 00:24:08
  TRACK 24 AUDIO
    TITLE "0:"
    INDEX 01 00:27:10
  TRACK 25 AUDIO
    TITLE "10:cjc040_3597"
    INDEX 01 00:27:63
  TRACK 26 AUDIO
    TITLE "0:"
    INDEX 01 00:29:25
  TRACK 27 AUDIO
    TITLE "11:cjc040_3598"
    INDEX 01 00:30:08
  TRACK 28 AUDIO
    TITLE "0:"
    INDEX 01 00:33:26
  TRACK 29 AUDIO
    TITLE "10:cjc040_3599"
    INDEX 01 00:34:00
  TRACK 30 AUDIO
    TITLE "0:"
    INDEX 01 00:35:10
  TRACK 31 AUDIO
    TITLE "11:cjc040_3600"
    INDEX 01 00:35:63
  TRACK 32 AUDIO
    TITLE "0:"
    INDEX 01 00:37:61
  TRACK 33 AUDIO
    TITLE "10:cjc040_3601"
    INDEX 01 00:38:35
  TRACK 34 AUDIO
    TITLE "0:"
    INDEX 01 00:39:54
  TRACK 35 AUDIO
    TITLE "11:cjc040_3602"
    INDEX 01 00:40:30
  TRACK 36 AUDIO
    TITLE "0:"
    INDEX 01 00:41:47
  TRACK 37 AUDIO
    TITLE "10:cjc040_3603"
    INDEX 01 00:42:23
  TRACK 38 AUDIO
    TITLE "0:"
    INDEX 01 00:43:33
  TRACK 39 AUDIO
    TITLE "11:cjc040_3604"
    INDEX 01 00:44:11
  TRACK 40 AUDIO
    TITLE "0:"
    INDEX 01 00:45:24
  TRACK 41 AUDIO
    TITLE "10:cjc040_3605"
    INDEX 01 00:46:04
  TRACK 42 AUDIO
    TITLE "0:"
    INDEX 01 00:47:17
  TRACK 43 AUDIO
    TITLE "11:cjc040_3606"
    INDEX 01 00:47:68
  TRACK 44 AUDIO
    TITLE "0:"
    INDEX 01 00:50:07
  TRACK 45 AUDIO
    TITLE "10:cjc040_3607"
    INDEX 01 00:50:56
  TRACK 46 AUDIO
    TITLE "0:"
    INDEX 01 00:52:10
  TRACK 47 AUDIO
    TITLE "11:cjc040_3608"
    INDEX 01 00:52:59
  TRACK 48 AUDIO
    TITLE "0:"
    INDEX 01 00:53:72
  TRACK 49 AUDIO
    TITLE "10:cjc040_3609"
    INDEX 01 00:54:56
  TRACK 50 AUDIO
    TITLE "0:"
    INDEX 01 00:56:04
  TRACK 51 AUDIO
    TITLE "11:cjc040_3610"
    INDEX 01 00:56:59
  TRACK 52 AUDIO
    TITLE "0:"
    INDEX 01 00:57:74
  TRACK 53 AUDIO
    TITLE "10:cjc040_3611"
    INDEX 01 00:58:48
  TRACK 54 AUDIO
    TITLE "0:"
    INDEX 01 01:00:06
  TRACK 55 AUDIO
    TITLE "11:cjc040_3612"
    INDEX 01 01:00:62
  TRACK 56 AUDIO
    TITLE "0:"
    INDEX 01 01:01:68
  TRACK 57 AUDIO
    TITLE "10:cjc040_3613"
    INDEX 01 01:02:46
  TRACK 58 AUDIO
    TITLE "0:"
    INDEX 01 01:03:55
  TRACK 59 AUDIO
    TITLE "11:cjc040_3614"
    INDEX 01 01:04:35
  TRACK 60 AUDIO
    TITLE "0:"
    INDEX 01 01:06:18
  TRACK 61 AUDIO
    TITLE "10:cjc040_3615"
    INDEX 01 01:06:69
  TRACK 62 AUDIO
    TITLE "0:"
    INDEX 01 01:08:09
  TRACK 63 AUDIO
    TITLE "11:cjc040_3616"
    INDEX 01 01:08:62
  TRACK 64 AUDIO
    TITLE "0:"
    INDEX 01 01:12:01
  TRACK 65 AUDIO
    TITLE "10:cjc040_3617"
    INDEX 01 01:12:56
  TRACK 66 AUDIO
    TITLE "0:"
    INDEX 01 01:13:65
  TRACK 67 AUDIO
    TITLE "11:cjc040_3618"
    INDEX 01 01:14:43
  TRACK 68 AUDIO
    TITLE "0:"
    INDEX 01 01:16:22
  TRACK 69 AUDIO
    TITLE "10:cjc040_3619"
    INDEX 01 01:16:69
  TRACK 70 AUDIO
    TITLE "0:"
    INDEX 01 01:18:09
  TRACK 71 AUDIO
    TITLE "11:cjc040_3620"
    INDEX 01 01:18:54
  TRACK 72 AUDIO
    TITLE "0:"
    INDEX 01 01:21:70
